<?xml version="1.0" encoding="UTF-8" standalone="no"?>
<svg width="32px" height="32px" viewBox="0 0 32 32" version="1.1" xmlns="http://www.w3.org/2000/svg" xmlns:xlink="http://www.w3.org/1999/xlink">
    <!-- Generator: Sketch 44.1 (41455) - http://www.bohemiancoding.com/sketch -->
    <title>Menu 5</title>
    <desc>Created with Sketch.</desc>
    <defs></defs>
    <g id="Page-2-Copy" stroke="none" stroke-width="1" fill="none" fill-rule="evenodd">
        <g id="132" stroke="#979797" fill-rule="nonzero" fill="#95909E">
            <path d="M24,28 C24,30.209139 25.7953562,32 28,32 C30.209139,32 32,30.2046438 32,28 C32,25.790861 30.2046438,24 28,24 C25.790861,24 24,25.7953562 24,28 Z M6,4 C6,5.1019741 5.10267065,6 4,6 C2.8980259,6 2,5.10267065 2,4 C2,2.8980259 2.89732935,2 4,2 C5.1019741,2 6,2.89732935 6,4 Z M18,4 C18,5.1019741 17.1026707,6 16,6 C14.8980259,6 14,5.10267065 14,4 C14,2.8980259 14.8973293,2 16,2 C17.1019741,2 18,2.89732935 18,4 Z M30,4 C30,5.1019741 29.1026707,6 28,6 C26.8980259,6 26,5.10267065 26,4 C26,2.8980259 26.8973293,2 28,2 C29.1019741,2 30,2.89732935 30,4 Z M6,16 C6,17.1019741 5.10267065,18 4,18 C2.8980259,18 2,17.1026707 2,16 C2,14.8980259 2.89732935,14 4,14 C5.1019741,14 6,14.8973293 6,16 Z M18,16 C18,17.1019741 17.1026707,18 16,18 C14.8980259,18 14,17.1026707 14,16 C14,14.8980259 14.8973293,14 16,14 C17.1019741,14 18,14.8973293 18,16 Z M30,16 C30,17.1019741 29.1026707,18 28,18 C26.8980259,18 26,17.1026707 26,16 C26,14.8980259 26.8973293,14 28,14 C29.1019741,14 30,14.8973293 30,16 Z M6,28 C6,29.1019741 5.10267065,30 4,30 C2.8980259,30 2,29.1026707 2,28 C2,26.8980259 2.89732935,26 4,26 C5.1019741,26 6,26.8973293 6,28 Z M18,28 C18,29.1019741 17.1026707,30 16,30 C14.8980259,30 14,29.1026707 14,28 C14,26.8980259 14.8973293,26 16,26 C17.1019741,26 18,26.8973293 18,28 Z M30,28 C30,29.1019741 29.1026707,30 28,30 C26.8980259,30 26,29.1026707 26,28 C26,26.8980259 26.8973293,26 28,26 C29.1019741,26 30,26.8973293 30,28 Z M0,4 C0,6.209139 1.79535615,8 4,8 C6.209139,8 8,6.20464385 8,4 C8,1.790861 6.20464385,0 4,0 C1.790861,0 0,1.79535615 0,4 Z M12,4 C12,6.209139 13.7953562,8 16,8 C18.209139,8 20,6.20464385 20,4 C20,1.790861 18.2046438,0 16,0 C13.790861,0 12,1.79535615 12,4 Z M24,4 C24,6.209139 25.7953562,8 28,8 C30.209139,8 32,6.20464385 32,4 C32,1.790861 30.2046438,0 28,0 C25.790861,0 24,1.79535615 24,4 Z M0,16 C0,18.209139 1.79535615,20 4,20 C6.209139,20 8,18.2046438 8,16 C8,13.790861 6.20464385,12 4,12 C1.790861,12 0,13.7953562 0,16 Z M12,16 C12,18.209139 13.7953562,20 16,20 C18.209139,20 20,18.2046438 20,16 C20,13.790861 18.2046438,12 16,12 C13.790861,12 12,13.7953562 12,16 Z M24,16 C24,18.209139 25.7953562,20 28,20 C30.209139,20 32,18.2046438 32,16 C32,13.790861 30.2046438,12 28,12 C25.790861,12 24,13.7953562 24,16 Z M0,28 C0,25.7953562 1.790861,24 4,24 C6.20464385,24 8,25.790861 8,28 C8,30.2046438 6.209139,32 4,32 C1.79535615,32 0,30.209139 0,28 Z" id="Rectangle-571" stroke="none"></path>
        </g>
    </g>
</svg>